<svg height="256" viewBox="0 0 256 256" width="256" xmlns="http://www.w3.org/2000/svg"><title>Figma</title> <path d="m103 203c13.8 0 25-11.2 25-25v-25h-25c-13.8 0-25 11.2-25 25s11.2 25 25 25z" fill="#0acf83"></path> <path d="m78 128c0-13.8 11.2-25 25-25h25v50h-25c-13.8 0-25-11.2-25-25z" fill="#a259ff"></path> <path d="m78 78c0-13.8 11.2-25 25-25h25v50h-25c-13.8 0-25-11.2-25-25z" fill="#f24e1e"></path> <path d="m128 53h25c13.8 0 25 11.2 25 25s-11.2 25-25 25h-25z" fill="#ff7262"></path> <path d="m178 128c0 13.8-11.2 25-25 25s-25-11.2-25-25 11.2-25 25-25 25 11.2 25 25z" fill="#1abcfe"></path></svg>